<?xml version="1.0" encoding="UTF-8"?>
<svg id="Layer_1" data-name="Layer 1" xmlns="http://www.w3.org/2000/svg" viewBox="0 0 376.33 362.5">
  <defs>
    <style>
      .cls-1 {
        fill: #fefefe;
      }

      .cls-2 {
        fill: #969696;
      }

      .cls-3 {
        fill: #959595;
      }

      .cls-4 {
        fill: #ccc;
      }
    </style>
  </defs>
  <path class="cls-1" d="M183.02,284.72c-.29,1.56-2.23,2.14-3.27,3.31-7.5,8.44,1.4,20.86,11.57,16.82,6.21-2.46,8.22-10.48,4.36-15.88-.78-1.09-4.21-3.49-4.21-3.77v-23.32c9.22.73,18.9,6.25,23.04,14.76,2.84,5.83,2.51,8.02-.15,13.68-5.68,12.06-18.88,24.79-33.1,20.22-8.68-2.79-20.12-15.42-22.27-24.25-2.99-12.22,13.12-23.92,24.04-24.41v22.84Z"/>
  <path class="cls-1" d="M124.47,161.99c-1.02,8.69-.67,17.54,1.33,26.06-.13.55-6.96,7.39-7.89,8.1-.47.36-.59.91-1.41.7-2.52-10.43-4.42-21.48-3.77-32.29.21-3.51,1.28-13.54,4.53-15.23,3.88-2.02,12.4,2.01,16.27,3.78,8.65,3.95,17.13,9.46,24.66,15.25l-11.47,5.25c-6.54-5.34-14.29-9.09-22.26-11.62Z"/>
  <path class="cls-1" d="M258,196.86l-8.83-8.33c2.02-8.67,2.38-17.71,1.33-26.54-8.08,2.24-15.59,6.32-22.27,11.33l-11.45-4.96c8.02-6.34,17.43-12.33,26.85-16.34,10.51-4.47,16.08-6.52,18.06,6.97,1.85,12.58-.27,25.78-3.7,37.87Z"/>
  <g>
    <path class="cls-1" d="M183.04,243.51c.25,2.91.01,6.05-.23,8.95-8.3-15.43-30.15-29.45-45.93-16.03-10.75,9.14-14.95,21.63-18.96,34.66-.13.41.25.96-.7.68-1.05-.31-6.13-4.8-7.28-5.88-3.4-3.18-12.62-13.12-13.01-17.55-.21-2.35,3.74-12.01,4.97-14.58s2.8-5.67,4.77-7.69c3.12-5.15,8.8-7.95,14.24-10.13,24.6-9.85,62.83-5.99,62.14,27.56Z"/>
    <path class="cls-1" d="M268.31,226.07c3.43,3.27,7.66,13.86,8.91,18.6.86,3.27,1.16,3.53-.29,6.79-1.85,4.14-5.47,7.12-8.13,10.67l-11.04,9.63c-1.29.3-2.05-5.23-2.44-6.48-3.38-10.61-8.92-22.2-17.7-29.31-15.53-12.58-38.61,1.64-45.68,17.42-.77.13-.44-.64-.46-1.17-.1-1.91-.16-4.5,0-6.37-.91-34.63,35.38-40.26,61.71-30.05,5.65,2.19,11.73,5.07,15.13,10.26Z"/>
    <path class="cls-2" d="M268.31,226.07c-18.51-17.63-66.09-21.96-74.63,8.11-.88,3.1-1.94,8.52-2.21,11.68v-73.5c33.88,1.02,61.65,24.75,76.84,53.72Z"/>
    <path class="cls-3" d="M106.66,226.07c14.62-29.25,43.35-52.52,76.84-53.72l-.47,71.15c-.31-3.67-1.57-9.41-2.92-12.85-10.26-26.06-56.8-21.74-73.45-4.59Z"/>
  </g>
  <circle class="cls-4" cx="153.62" cy="256.87" r="5.01"/>
  <circle class="cls-4" cx="221.51" cy="256.87" r="5.01"/>
  <rect class="cls-2" x="320.5" y="287.51" width="55.83" height="74.98" rx="10" ry="10"/>
  <rect class="cls-2" x="0" y="287.51" width="55.83" height="74.98" rx="10" ry="10"/>
  <rect class="cls-2" x="320.5" y="208.37" width="55.83" height="59.09" rx="10" ry="10"/>
  <rect class="cls-2" x="0" y="208.37" width="55.83" height="59.09" rx="10" ry="10"/>
  <path class="cls-2" d="M350.62,86.58c-4.01-2.66-8.09,5.31-12.61,10.18-9.57,11.95-20.34,24.3-27.96,34.51-2.34,3.37-2.81,6.97-2.31,11.6.56,5.48,1.98,13.29,2.94,19.34.9,5.07,1.46,10.04,3.02,14.64,1.51,4.21,3.94,4.68,8.91,4.75,11.57.06,23.91.02,35.46.05,4.78-.11,11.3.32,14.03-.47,7.19-1.6,3.17-20.19,2.66-26.93-2.63-18.2-8.32-35.17-15.22-51.55-2.46-5.34-4.95-12.79-8.8-16.05l-.1-.07Z"/>
  <path class="cls-2" d="M25.71,86.58c4.01-2.66,8.09,5.31,12.61,10.18,9.57,11.95,20.34,24.3,27.96,34.51,2.34,3.37,2.81,6.97,2.31,11.6-.56,5.48-1.98,13.29-2.94,19.34-.9,5.07-1.46,10.04-3.02,14.64-1.51,4.21-3.94,4.68-8.91,4.75-11.57.06-23.91.02-35.46.05-4.78-.11-11.3.32-14.03-.47-7.19-1.6-3.17-20.19-2.66-26.93,2.63-18.2,8.32-35.17,15.22-51.55,2.46-5.34,4.95-12.79,8.8-16.05l.1-.07Z"/>
  <path class="cls-2" d="M273.48,104.56c-1.35-.46-2.19-1.51-11.19-8.4-2.57-1.97-3.02-2.47-7.85-5.67-4.58-3.04-9.36-5.7-13.79-8.95-2.11-1.66-3.81-2.67-4.29-4.99-.92-4.45,1.06-10.78,2.03-15.11,1.44-6.32,4.1-15.49,6.14-22.98,1.7-6.04,3.52-13.07,5.26-18.77,1.45-4.5,2.62-7.07,5.38-7.4,3.88-.31,9.12,2.05,12.97,3.6,10.61,4.46,21.1,10.48,30.12,16.64,6.81,5.13,13.47,11.08,19.97,16.86,6.3,6.41,10.39,8.33,2.39,15.6-8.12,7.88-25.24,24.38-34.64,33.47-4.14,3.55-7.24,8.85-12.35,6.17l-.15-.08Z"/>
  <path class="cls-2" d="M105.49,101.21c1.35-.46,2.19-1.51,11.19-8.4,2.57-1.97,3.02-2.47,7.85-5.67,4.58-3.04,9.36-5.7,13.79-8.95,2.11-1.66,3.81-2.67,4.29-4.99.92-4.45-1.06-10.78-2.03-15.11-1.44-6.32-4.1-15.49-6.14-22.98-1.7-6.04-3.52-13.07-5.26-18.77-1.45-4.5-2.62-7.07-5.38-7.4-3.88-.31-9.12,2.05-12.97,3.6-10.61,4.46-21.1,10.48-30.12,16.64-6.81,5.13-13.47,11.08-19.97,16.86-6.3,6.41-10.39,8.33-2.39,15.6,8.12,7.88,25.24,24.38,34.64,33.47,4.14,3.55,7.24,8.85,12.35,6.17l.15-.08Z"/>
  <path class="cls-2" d="M192.71,64.22c-2.19.63-5.04.69-7.3.1-3.11-.75-3.06-2.16-4.01-4.19-.59-1.4-1.18-2.77-1.81-4.25-5.98-14.09-17.92-42.15-21.06-49.55-1.25-2.1-1.79-5.65,2.46-6.17,11.79-.29,26.11-.05,38.71-.15,5.19,0,12.59-.03,16.27-.01,1.23.01,2.54.09,3.53.57,2.9,1.33,1.72,4,.8,5.77-.56,1.26-1.01,2.31-1.61,3.65-2.06,4.66-5.64,12.8-9.39,21.29-2.94,6.67-6.38,14.46-9.13,20.71-1.86,4.21-3.3,7.47-4.08,9.26-.48,1.27-1.22,2.4-3.19,2.91l-.19.06Z"/>
</svg>